<mxfile host="65bd71144e" modified="2020-12-14T11:13:34.754Z" agent="5.0 (Macintosh; Intel Mac OS X 11_0_0) AppleWebKit/537.36 (KHTML, like Gecko) Code/1.52.0 Chrome/83.0.4103.122 Electron/9.3.5 Safari/537.36" etag="1a0hMmBYah1hPFChzdjy" version="13.10.0" type="embed">
    <diagram id="_We_MvTQ2Kez05CE6lf8" name="Page-1">
        <mxGraphModel dx="4284" dy="2476" grid="0" gridSize="10" guides="1" tooltips="1" connect="1" arrows="1" fold="1" page="0" pageScale="1" pageWidth="827" pageHeight="1169" background="none" math="0" shadow="0">
            <root>
                <mxCell id="0"/>
                <mxCell id="1" parent="0"/>
                <mxCell id="5" value="Features" style="swimlane;html=1;startSize=20;horizontal=1;containerType=tree;swimlaneFillColor=none;gradientColor=#ffffff;" parent="1" vertex="1">
                    <mxGeometry x="-388" y="519" width="802" height="1408" as="geometry"/>
                </mxCell>
                <mxCell id="60" value="Welcome" style="swimlane;html=1;startSize=20;horizontal=1;containerType=tree;fillColor=none;" vertex="1" parent="5">
                    <mxGeometry x="447" y="73" width="290" height="396" as="geometry"/>
                </mxCell>
                <mxCell id="74" value="Containers" style="swimlane;html=1;startSize=20;horizontal=1;containerType=tree;swimlaneFillColor=none;fillColor=none;" vertex="1" parent="60">
                    <mxGeometry x="28" y="144" width="239" height="215" as="geometry"/>
                </mxCell>
                <mxCell id="76" value="welcome.component.html" style="whiteSpace=wrap;html=1;treeFolding=1;treeMoving=1;newEdgeStyle={&quot;edgeStyle&quot;:&quot;elbowEdgeStyle&quot;,&quot;startArrow&quot;:&quot;none&quot;,&quot;endArrow&quot;:&quot;none&quot;};" vertex="1" parent="74">
                    <mxGeometry x="21" y="38" width="201" height="40" as="geometry"/>
                </mxCell>
                <mxCell id="83" value="welcome.component.ts" style="whiteSpace=wrap;html=1;treeFolding=1;treeMoving=1;newEdgeStyle={&quot;edgeStyle&quot;:&quot;elbowEdgeStyle&quot;,&quot;startArrow&quot;:&quot;none&quot;,&quot;endArrow&quot;:&quot;none&quot;};" vertex="1" parent="74">
                    <mxGeometry x="21" y="90" width="201" height="40" as="geometry"/>
                </mxCell>
                <mxCell id="82" value="welcome.component.css" style="whiteSpace=wrap;html=1;treeFolding=1;treeMoving=1;newEdgeStyle={&quot;edgeStyle&quot;:&quot;elbowEdgeStyle&quot;,&quot;startArrow&quot;:&quot;none&quot;,&quot;endArrow&quot;:&quot;none&quot;};" vertex="1" parent="74">
                    <mxGeometry x="21" y="145" width="201" height="40" as="geometry"/>
                </mxCell>
                <mxCell id="79" value="welcome-routing.module.ts" style="rounded=0;whiteSpace=wrap;html=1;strokeColor=#f0f0f0;fillColor=none;gradientColor=none;" vertex="1" parent="60">
                    <mxGeometry x="28" y="34" width="166" height="32" as="geometry"/>
                </mxCell>
                <mxCell id="80" value="welcome.module.ts" style="rounded=0;whiteSpace=wrap;html=1;strokeColor=#f0f0f0;fillColor=none;gradientColor=none;" vertex="1" parent="60">
                    <mxGeometry x="28" y="86" width="166" height="32" as="geometry"/>
                </mxCell>
                <mxCell id="84" value="Attestation" style="swimlane;html=1;startSize=20;horizontal=1;containerType=tree;fillColor=none;" vertex="1" parent="5">
                    <mxGeometry x="447" y="945" width="290" height="396" as="geometry"/>
                </mxCell>
                <mxCell id="85" value="Containers" style="swimlane;html=1;startSize=20;horizontal=1;containerType=tree;swimlaneFillColor=none;fillColor=none;" vertex="1" parent="84">
                    <mxGeometry x="28" y="144" width="239" height="215" as="geometry"/>
                </mxCell>
                <mxCell id="86" value="attestation.component.html" style="whiteSpace=wrap;html=1;treeFolding=1;treeMoving=1;newEdgeStyle={&quot;edgeStyle&quot;:&quot;elbowEdgeStyle&quot;,&quot;startArrow&quot;:&quot;none&quot;,&quot;endArrow&quot;:&quot;none&quot;};" vertex="1" parent="85">
                    <mxGeometry x="21" y="38" width="201" height="40" as="geometry"/>
                </mxCell>
                <mxCell id="87" value="attestation.component.ts" style="whiteSpace=wrap;html=1;treeFolding=1;treeMoving=1;newEdgeStyle={&quot;edgeStyle&quot;:&quot;elbowEdgeStyle&quot;,&quot;startArrow&quot;:&quot;none&quot;,&quot;endArrow&quot;:&quot;none&quot;};" vertex="1" parent="85">
                    <mxGeometry x="21" y="90" width="201" height="40" as="geometry"/>
                </mxCell>
                <mxCell id="88" value="attestation.component.css" style="whiteSpace=wrap;html=1;treeFolding=1;treeMoving=1;newEdgeStyle={&quot;edgeStyle&quot;:&quot;elbowEdgeStyle&quot;,&quot;startArrow&quot;:&quot;none&quot;,&quot;endArrow&quot;:&quot;none&quot;};" vertex="1" parent="85">
                    <mxGeometry x="21" y="145" width="201" height="40" as="geometry"/>
                </mxCell>
                <mxCell id="89" value="attestation-routing.module.ts" style="rounded=0;whiteSpace=wrap;html=1;strokeColor=#f0f0f0;fillColor=none;gradientColor=none;" vertex="1" parent="84">
                    <mxGeometry x="28" y="34" width="166" height="32" as="geometry"/>
                </mxCell>
                <mxCell id="90" value="attestation.module.ts" style="rounded=0;whiteSpace=wrap;html=1;strokeColor=#f0f0f0;fillColor=none;gradientColor=none;" vertex="1" parent="84">
                    <mxGeometry x="28" y="86" width="166" height="32" as="geometry"/>
                </mxCell>
                <mxCell id="91" value="Setup" style="swimlane;html=1;startSize=20;horizontal=1;containerType=tree;fillColor=none;" vertex="1" parent="5">
                    <mxGeometry x="447" y="507" width="290" height="396" as="geometry"/>
                </mxCell>
                <mxCell id="92" value="Containers" style="swimlane;html=1;startSize=20;horizontal=1;containerType=tree;swimlaneFillColor=none;fillColor=none;" vertex="1" parent="91">
                    <mxGeometry x="28" y="144" width="239" height="215" as="geometry"/>
                </mxCell>
                <mxCell id="93" value="setup.component.html" style="whiteSpace=wrap;html=1;treeFolding=1;treeMoving=1;newEdgeStyle={&quot;edgeStyle&quot;:&quot;elbowEdgeStyle&quot;,&quot;startArrow&quot;:&quot;none&quot;,&quot;endArrow&quot;:&quot;none&quot;};" vertex="1" parent="92">
                    <mxGeometry x="21" y="38" width="201" height="40" as="geometry"/>
                </mxCell>
                <mxCell id="94" value="setup.component.ts" style="whiteSpace=wrap;html=1;treeFolding=1;treeMoving=1;newEdgeStyle={&quot;edgeStyle&quot;:&quot;elbowEdgeStyle&quot;,&quot;startArrow&quot;:&quot;none&quot;,&quot;endArrow&quot;:&quot;none&quot;};" vertex="1" parent="92">
                    <mxGeometry x="21" y="90" width="201" height="40" as="geometry"/>
                </mxCell>
                <mxCell id="95" value="setup.component.css" style="whiteSpace=wrap;html=1;treeFolding=1;treeMoving=1;newEdgeStyle={&quot;edgeStyle&quot;:&quot;elbowEdgeStyle&quot;,&quot;startArrow&quot;:&quot;none&quot;,&quot;endArrow&quot;:&quot;none&quot;};" vertex="1" parent="92">
                    <mxGeometry x="21" y="145" width="201" height="40" as="geometry"/>
                </mxCell>
                <mxCell id="96" value="setup-routing.module.ts" style="rounded=0;whiteSpace=wrap;html=1;strokeColor=#f0f0f0;fillColor=none;gradientColor=none;" vertex="1" parent="91">
                    <mxGeometry x="28" y="34" width="166" height="32" as="geometry"/>
                </mxCell>
                <mxCell id="97" value="setup.module.ts" style="rounded=0;whiteSpace=wrap;html=1;strokeColor=#f0f0f0;fillColor=none;gradientColor=none;" vertex="1" parent="91">
                    <mxGeometry x="28" y="86" width="166" height="32" as="geometry"/>
                </mxCell>
                <mxCell id="118" style="edgeStyle=orthogonalEdgeStyle;rounded=0;orthogonalLoop=1;jettySize=auto;html=1;exitX=1;exitY=0.5;exitDx=0;exitDy=0;entryX=0;entryY=0.5;entryDx=0;entryDy=0;" edge="1" parent="5" source="103" target="91">
                    <mxGeometry relative="1" as="geometry"/>
                </mxCell>
                <mxCell id="119" style="edgeStyle=orthogonalEdgeStyle;rounded=0;orthogonalLoop=1;jettySize=auto;html=1;entryX=0;entryY=0.5;entryDx=0;entryDy=0;" edge="1" parent="5" source="103" target="60">
                    <mxGeometry relative="1" as="geometry"/>
                </mxCell>
                <mxCell id="120" style="edgeStyle=orthogonalEdgeStyle;rounded=0;orthogonalLoop=1;jettySize=auto;html=1;entryX=0;entryY=0.5;entryDx=0;entryDy=0;" edge="1" parent="5" source="103" target="84">
                    <mxGeometry relative="1" as="geometry"/>
                </mxCell>
                <mxCell id="103" value="tabs" style="swimlane;html=1;startSize=20;horizontal=1;containerType=tree;fillColor=none;" vertex="1" parent="5">
                    <mxGeometry x="52" y="507" width="290" height="396" as="geometry"/>
                </mxCell>
                <mxCell id="104" value="Containers" style="swimlane;html=1;startSize=20;horizontal=1;containerType=tree;swimlaneFillColor=none;fillColor=none;" vertex="1" parent="103">
                    <mxGeometry x="28" y="144" width="239" height="215" as="geometry"/>
                </mxCell>
                <mxCell id="105" value="tabs.component.html" style="whiteSpace=wrap;html=1;treeFolding=1;treeMoving=1;newEdgeStyle={&quot;edgeStyle&quot;:&quot;elbowEdgeStyle&quot;,&quot;startArrow&quot;:&quot;none&quot;,&quot;endArrow&quot;:&quot;none&quot;};" vertex="1" parent="104">
                    <mxGeometry x="21" y="38" width="201" height="40" as="geometry"/>
                </mxCell>
                <mxCell id="106" value="tabs.component.ts" style="whiteSpace=wrap;html=1;treeFolding=1;treeMoving=1;newEdgeStyle={&quot;edgeStyle&quot;:&quot;elbowEdgeStyle&quot;,&quot;startArrow&quot;:&quot;none&quot;,&quot;endArrow&quot;:&quot;none&quot;};" vertex="1" parent="104">
                    <mxGeometry x="21" y="90" width="201" height="40" as="geometry"/>
                </mxCell>
                <mxCell id="107" value="tabs.component.css" style="whiteSpace=wrap;html=1;treeFolding=1;treeMoving=1;newEdgeStyle={&quot;edgeStyle&quot;:&quot;elbowEdgeStyle&quot;,&quot;startArrow&quot;:&quot;none&quot;,&quot;endArrow&quot;:&quot;none&quot;};" vertex="1" parent="104">
                    <mxGeometry x="21" y="145" width="201" height="40" as="geometry"/>
                </mxCell>
                <mxCell id="108" value="tabs-routing.module.ts" style="rounded=0;whiteSpace=wrap;html=1;strokeColor=#f0f0f0;fillColor=none;gradientColor=none;" vertex="1" parent="103">
                    <mxGeometry x="28" y="34" width="166" height="32" as="geometry"/>
                </mxCell>
                <mxCell id="109" value="tabs.module.ts" style="rounded=0;whiteSpace=wrap;html=1;strokeColor=#f0f0f0;fillColor=none;gradientColor=none;" vertex="1" parent="103">
                    <mxGeometry x="28" y="86" width="166" height="32" as="geometry"/>
                </mxCell>
            </root>
        </mxGraphModel>
    </diagram>
</mxfile>